<svg width="64" height="12" viewBox="0 0 64 12" fill="none" xmlns="http://www.w3.org/2000/svg">
<path d="M11.1483 10.6968C11.237 10.8631 11.2814 11.0073 11.2814 11.1293C11.2925 11.2402 11.2592 11.3456 11.1816 11.4454C11.104 11.5341 10.982 11.6173 10.8156 11.6949C10.5494 11.8169 10.3387 11.8446 10.1835 11.7781C10.0393 11.7116 9.90619 11.5508 9.78419 11.2957L7.70473 6.87056L5.62526 2.44545L1.49959 11.279C1.3776 11.5341 1.23897 11.6949 1.0837 11.7615C0.939523 11.828 0.728804 11.8003 0.451542 11.6783C0.285184 11.6117 0.163189 11.5286 0.0855553 11.4288C0.0190123 11.3289 -0.00871396 11.2069 0.00237654 11.0628C0.0245575 10.9186 0.08001 10.7522 0.168734 10.5637L4.94319 0.598887C5.00974 0.465801 5.10401 0.360441 5.226 0.282808C5.35909 0.194084 5.49772 0.149722 5.64189 0.149722C5.74171 0.149722 5.83598 0.166357 5.9247 0.199628C6.01343 0.2329 6.09106 0.282807 6.1576 0.34935C6.22414 0.415893 6.2796 0.504618 6.32396 0.615522L11.1483 10.6968Z" fill="white"/>
<path d="M18.2202 11.8446C17.954 11.8446 17.6768 11.8169 17.3884 11.7615C17.1001 11.706 16.8173 11.6284 16.54 11.5286C16.2738 11.4177 16.0354 11.2901 15.8247 11.1459C15.625 11.0018 15.4753 10.841 15.3755 10.6635C15.32 10.5526 15.2868 10.4528 15.2757 10.3641C15.2646 10.2643 15.2812 10.17 15.3256 10.0813C15.3699 9.99254 15.4365 9.90381 15.5252 9.81509C15.6361 9.682 15.747 9.621 15.8579 9.63209C15.9688 9.63209 16.1075 9.70418 16.2738 9.84836C16.3958 9.92599 16.54 10.0147 16.7064 10.1145C16.8727 10.2033 17.0446 10.2864 17.2221 10.3641C17.3995 10.4306 17.577 10.4916 17.7544 10.5471C17.9429 10.5914 18.1259 10.6136 18.3034 10.6136C18.8135 10.6136 19.2239 10.5193 19.5344 10.3308C19.845 10.1312 20.0002 9.87054 20.0002 9.54892C20.0002 9.36038 19.9614 9.19957 19.8838 9.06648C19.8061 8.93339 19.7008 8.82249 19.5677 8.73376C19.4346 8.63395 19.2849 8.55077 19.1185 8.48423C18.9522 8.41769 18.7636 8.35669 18.5529 8.30124C18.3533 8.23469 18.1537 8.17369 17.954 8.11824C17.6546 8.04061 17.3607 7.95188 17.0723 7.85207C16.784 7.75226 16.5234 7.62471 16.2905 7.46945C16.0576 7.30309 15.869 7.09792 15.7248 6.85393C15.5807 6.59884 15.5086 6.27722 15.5086 5.88905C15.5086 5.43434 15.625 5.04063 15.8579 4.70791C16.0908 4.3752 16.418 4.12012 16.8394 3.94267C17.2609 3.75413 17.7544 3.65986 18.32 3.65986C18.564 3.65986 18.7914 3.6765 19.0021 3.70977C19.2128 3.74304 19.4124 3.79849 19.601 3.87613C19.8006 3.94267 19.9891 4.02585 20.1666 4.12566C20.344 4.21439 20.5159 4.32529 20.6823 4.45838C20.8819 4.59146 20.9873 4.73564 20.9984 4.89091C21.0095 5.04617 20.9485 5.20699 20.8154 5.37334C20.7156 5.51752 20.6047 5.61179 20.4827 5.65615C20.3607 5.68942 20.2387 5.65615 20.1167 5.55634C19.9392 5.42325 19.7507 5.3068 19.5511 5.20699C19.3514 5.10717 19.1463 5.02399 18.9355 4.95745C18.7248 4.89091 18.5086 4.85764 18.2867 4.85764C18.0095 4.85764 17.7599 4.902 17.5381 4.99072C17.3274 5.06836 17.1611 5.19035 17.0391 5.35671C16.9282 5.51198 16.8727 5.68942 16.8727 5.88905C16.8727 6.0665 16.9171 6.21068 17.0058 6.32158C17.1056 6.43249 17.2276 6.52676 17.3718 6.60439C17.527 6.68202 17.7045 6.75411 17.9041 6.82065C18.1148 6.87611 18.3311 6.93156 18.5529 6.98701C18.8745 7.06464 19.2017 7.15891 19.5344 7.26982C19.8782 7.36963 20.1832 7.50826 20.4494 7.68571C20.7267 7.85207 20.9485 8.07943 21.1148 8.36778C21.2923 8.64504 21.381 9.01657 21.381 9.48237C21.381 10.2143 21.0926 10.7911 20.5159 11.2125C19.9392 11.6339 19.174 11.8446 18.2202 11.8446Z" fill="white"/>
<path d="M29.7048 11.7615C29.1836 11.7615 28.74 11.7116 28.374 11.6117C28.0191 11.5119 27.7252 11.3567 27.4923 11.1459C27.2594 10.9352 27.093 10.6635 26.9932 10.3308C26.8934 9.98699 26.8435 9.56555 26.8435 9.06648V1.71348C26.8435 1.55821 26.8601 1.42513 26.8934 1.31422C26.9267 1.20332 26.9932 1.12014 27.093 1.06469C27.1928 0.998144 27.3481 0.964872 27.5588 0.964872C27.7696 0.964872 27.9304 0.998144 28.0413 1.06469C28.1522 1.12014 28.2243 1.20332 28.2575 1.31422C28.2908 1.41404 28.3074 1.54158 28.3074 1.69685V9.06648C28.3074 9.35483 28.3296 9.58773 28.374 9.76518C28.4294 9.93154 28.5071 10.0591 28.6069 10.1478C28.7178 10.2365 28.862 10.292 29.0394 10.3142C29.2169 10.3363 29.4331 10.3474 29.6882 10.3474C29.8657 10.3474 30.0098 10.3641 30.1207 10.3973C30.2316 10.4306 30.3148 10.4972 30.3703 10.597C30.4257 10.6968 30.4535 10.8465 30.4535 11.0461C30.4535 11.2569 30.4202 11.4177 30.3536 11.5286C30.2982 11.6284 30.2095 11.6894 30.0875 11.7116C29.9766 11.7448 29.849 11.7615 29.7048 11.7615ZM25.9784 3.89276L27.5755 3.9094L29.8878 3.87613C30.0431 3.87613 30.1762 3.89276 30.2871 3.92603C30.398 3.94822 30.4812 4.01476 30.5366 4.12566C30.6032 4.22548 30.6364 4.38074 30.6364 4.59146C30.6364 4.80218 30.6087 4.963 30.5533 5.0739C30.4978 5.17372 30.4146 5.24026 30.3037 5.27353C30.1928 5.3068 30.0597 5.32344 29.9045 5.32344L27.6254 5.29017L25.9452 5.3068C25.7123 5.3068 25.5515 5.25135 25.4627 5.14044C25.3851 5.02954 25.3463 4.84655 25.3463 4.59146C25.3463 4.34747 25.3962 4.17003 25.496 4.05912C25.5958 3.94822 25.7566 3.89276 25.9784 3.89276Z" fill="white"/>
<path d="M35.7765 11.7615C35.5658 11.7615 35.405 11.7282 35.2941 11.6617C35.1832 11.6062 35.1111 11.523 35.0778 11.4121C35.0556 11.2901 35.0445 11.1515 35.0445 10.9962V0.748609C35.0445 0.593342 35.0612 0.460256 35.0944 0.34935C35.1277 0.238445 35.1998 0.155267 35.3107 0.0998141C35.4216 0.0332714 35.5824 0 35.7931 0C36.0149 0 36.1758 0.0332714 36.2756 0.0998141C36.3865 0.155267 36.453 0.238445 36.4752 0.34935C36.5085 0.460256 36.5251 0.598887 36.5251 0.765244V4.87427C36.7913 4.56374 37.1129 4.28648 37.49 4.04249C37.8781 3.79849 38.3495 3.6765 38.904 3.6765C39.5584 3.6765 40.1406 3.83177 40.6508 4.1423C41.172 4.44174 41.5824 4.86873 41.8818 5.42325C42.1924 5.97778 42.3476 6.63766 42.3476 7.40291V11.0129C42.3476 11.1681 42.331 11.3012 42.2977 11.4121C42.2644 11.523 42.1979 11.6062 42.0981 11.6617C41.9983 11.7282 41.8375 11.7615 41.6157 11.7615C41.4049 11.7615 41.2441 11.7282 41.1332 11.6617C41.0223 11.6062 40.9502 11.523 40.9169 11.4121C40.8837 11.2901 40.867 11.1515 40.867 10.9962V7.38627C40.867 6.92047 40.7894 6.51567 40.6341 6.17186C40.4789 5.82805 40.246 5.56188 39.9354 5.37334C39.636 5.18481 39.2534 5.09054 38.7876 5.09054C38.1554 5.09054 37.6342 5.27353 37.2238 5.63952C36.8246 5.99441 36.5917 6.4713 36.5251 7.07019V11.0129C36.5251 11.1681 36.5085 11.3012 36.4752 11.4121C36.4419 11.523 36.3698 11.6062 36.2589 11.6617C36.1591 11.7282 35.9983 11.7615 35.7765 11.7615Z" fill="white"/>
<path d="M47.7901 11.7615C47.5794 11.7615 47.4186 11.7282 47.3077 11.6617C47.2079 11.6062 47.1413 11.523 47.108 11.4121C47.0859 11.2901 47.0748 11.1515 47.0748 10.9962V4.44174C47.0748 4.27539 47.0914 4.13675 47.1247 4.02585C47.158 3.91494 47.2245 3.83731 47.3243 3.79295C47.4241 3.7375 47.5849 3.70977 47.8067 3.70977C48.0064 3.70977 48.1561 3.7375 48.2559 3.79295C48.3668 3.83731 48.4389 3.9094 48.4722 4.00921C48.5165 4.09794 48.5387 4.2033 48.5387 4.32529L48.4722 4.82437C48.5498 4.68019 48.6385 4.53601 48.7383 4.39184C48.8493 4.24766 48.9823 4.12012 49.1376 4.00921C49.304 3.88722 49.498 3.7874 49.7199 3.70977C49.9528 3.63214 50.2356 3.59332 50.5683 3.59332C50.7346 3.59332 50.8899 3.60996 51.0341 3.64323C51.1893 3.66541 51.3335 3.70423 51.4666 3.75968C51.6108 3.81513 51.7328 3.88167 51.8326 3.95931C51.9324 4.02585 52.01 4.10348 52.0655 4.19221C52.132 4.26984 52.1653 4.36411 52.1653 4.47501C52.1653 4.719 52.0877 4.92972 51.9324 5.10717C51.7771 5.27353 51.6163 5.35671 51.45 5.35671C51.3058 5.35671 51.2004 5.34007 51.1339 5.3068C51.0674 5.26244 51.0008 5.21808 50.9343 5.17372C50.8788 5.12935 50.7956 5.09054 50.6847 5.05727C50.5738 5.0129 50.3964 4.99072 50.1524 4.99072C49.986 4.99072 49.8086 5.02399 49.62 5.09054C49.4426 5.15708 49.2707 5.25689 49.1043 5.38998C48.938 5.51198 48.7993 5.67279 48.6884 5.87242C48.5886 6.07205 48.5387 6.30495 48.5387 6.57112V11.0295C48.5387 11.1848 48.5221 11.3178 48.4888 11.4288C48.4555 11.5397 48.3835 11.6228 48.2725 11.6783C48.1727 11.7337 48.0119 11.7615 47.7901 11.7615Z" fill="white"/>
<path d="M62.9175 11.7448C62.6735 11.7448 62.496 11.6949 62.3851 11.5951C62.2853 11.4953 62.2243 11.34 62.2021 11.1293L62.2687 10.2975C62.1578 10.475 61.9859 10.6801 61.753 10.913C61.5201 11.1349 61.2151 11.3345 60.838 11.5119C60.4609 11.6783 60.0007 11.7615 59.4572 11.7615C58.9249 11.7615 58.4258 11.6561 57.96 11.4454C57.5053 11.2347 57.1005 10.9408 56.7456 10.5637C56.4018 10.1866 56.1301 9.75409 55.9304 9.26611C55.7419 8.77813 55.6476 8.25687 55.6476 7.70235C55.6476 7.15891 55.7419 6.64875 55.9304 6.17186C56.1301 5.68388 56.4073 5.25689 56.7622 4.89091C57.1171 4.52492 57.5219 4.23657 57.9766 4.02585C58.4424 3.81513 58.936 3.70977 59.4572 3.70977C59.9452 3.70977 60.3611 3.77631 60.7049 3.9094C61.0487 4.03139 61.3426 4.19775 61.5866 4.40847C61.8417 4.6081 62.0635 4.83546 62.252 5.09054L62.2188 4.39184C62.2077 4.14785 62.2576 3.97594 62.3685 3.87613C62.4905 3.76522 62.679 3.70977 62.9341 3.70977C63.1448 3.70977 63.2945 3.74304 63.3833 3.80958C63.4831 3.87613 63.5496 3.9704 63.5829 4.09239C63.6162 4.21439 63.6328 4.36411 63.6328 4.54156V10.963C63.6328 11.1182 63.6162 11.2569 63.5829 11.3788C63.5496 11.5008 63.4831 11.5896 63.3833 11.645C63.2834 11.7116 63.1282 11.7448 62.9175 11.7448ZM59.7068 10.3641C60.1504 10.3641 60.5552 10.2476 60.9212 10.0147C61.2982 9.78182 61.5921 9.47128 61.8029 9.08312C62.0247 8.68386 62.1356 8.22915 62.1356 7.71898C62.1356 7.19773 62.0191 6.74302 61.7862 6.35485C61.5644 5.9556 61.265 5.64506 60.8879 5.42325C60.5219 5.19035 60.1171 5.0739 59.6735 5.0739C59.1522 5.0739 58.6975 5.1959 58.3094 5.43989C57.9323 5.67279 57.6328 5.98887 57.411 6.38812C57.1892 6.78738 57.0783 7.24209 57.0783 7.75226C57.0783 8.25133 57.1892 8.70049 57.411 9.09975C57.6328 9.48792 57.9378 9.79845 58.326 10.0314C58.7253 10.2532 59.1855 10.3641 59.7068 10.3641Z" fill="white"/>
</svg>
